HIERARCHY
ROOT Hips
{
    OFFSET 0.000000 0.000000 0.000000
    CHANNELS 6 Xposition Yposition Zposition Zrotation Xrotation Yrotation
        JOINT Chest
        {
            OFFSET -0.000000 26.747992 -0.000000
            CHANNELS 3 Zrotation Xrotation Yrotation
            JOINT Neck
            {
                OFFSET -0.000000 19.168715 0.000000
                CHANNELS 3 Zrotation Xrotation Yrotation
                JOINT Head
                {
                    OFFSET -0.000000 10.083335 0.000000
                    CHANNELS 3 Zrotation Xrotation Yrotation
                    End Site
                    {
                        OFFSET -0.000000 15.583343 0.000000
                    }
                }
            }
            JOINT LeftCollar
            {
                OFFSET -0.000000 19.168715 0.000000
                CHANNELS 3 Zrotation Xrotation Yrotation
                JOINT LeftShoulder
                {
                    OFFSET 19.500000 -0.000000 0.000000
                    CHANNELS 3 Zrotation Xrotation Yrotation
                    JOINT LeftElbow
                    {
                        OFFSET 19.022890 0.000000 0.000000
                        CHANNELS 3 Zrotation Xrotation Yrotation
                        JOINT LeftWrist
                        {
                            OFFSET 24.768559 0.000000 0.000000
                            CHANNELS 3 Zrotation Xrotation Yrotation
                            End Site
                            {
                                OFFSET 0.000000 -13.750003 0.000000
                            }
                        }
                    }
                }
            }
            JOINT RightCollar
            {
                OFFSET -0.000000 19.168715 0.000000
                CHANNELS 3 Zrotation Xrotation Yrotation
                JOINT RightShoulder
                {
                    OFFSET -19.500000 0.000000 0.000000
                    CHANNELS 3 Zrotation Xrotation Yrotation
                    JOINT RightElbow
                    {
                        OFFSET -19.022890 0.000000 0.000000
                        CHANNELS 3 Zrotation Xrotation Yrotation
                        JOINT RightWrist
                        {
                            OFFSET -24.768559 0.000000 0.000000
                            CHANNELS 3 Zrotation Xrotation Yrotation
                            End Site
                            {
                                OFFSET -0.000000 -13.750003 0.000000
                            }
                        }
                    }
                }
            }
        }
    JOINT LeftHip
    {
        OFFSET 11.000002 0.000000 0.000000
        CHANNELS 3 Zrotation Xrotation Yrotation
        JOINT LeftKnee
        {
            OFFSET -0.000000 -39.837296 0.000000
            CHANNELS 3 Zrotation Xrotation Yrotation
            JOINT LeftAnkle
            {
                OFFSET -0.000000 -38.248398 0.000000
                CHANNELS 3 Zrotation Xrotation Yrotation
                End Site
                {
                    OFFSET -0.000000 -4.583334 15.583343
                }
            }
        }
    }
    JOINT RightHip
    {
        OFFSET -11.000002 0.000000 0.000000
        CHANNELS 3 Zrotation Xrotation Yrotation
        JOINT RightKnee
        {
            OFFSET -0.000000 -39.837296 0.000000
            CHANNELS 3 Zrotation Xrotation Yrotation
            JOINT RightAnkle
            {
                OFFSET -0.000000 -38.248398 0.000000
                CHANNELS 3 Zrotation Xrotation Yrotation
                End Site
                {
                    OFFSET -0.000000 -4.583334 15.583343
                }
            }
        }
    }
}
MOTION
Frames:    5
Frame Time:    0.010000
69.549248    85.185684    4.058691    -0.964102    1.395821    -35.403538    1.339827    8.262609    13.524925    -2.986815    0.178846    -7.792359    8.349792    -26.366148    -5.832787    -21.562675    -3.261341    17.858612    -18.780151    35.282772    -28.456602    24.024778    -24.764330    -91.385872    143.521774    21.945122    41.261398    15.054713    1.521372    11.232837    13.744755    25.559702    45.862072    -1.566551    -1.044773    89.676048    -50.879604    -0.784092    -19.304819    8.623207    -20.320412    1.867679    1.558032    20.655457    13.600606    -6.919979    1.263492    3.324940    -2.742327    -3.468686    -14.380850    -4.998285    25.742405    -14.949996    2.629565    -17.373669    3.546354    
69.542603    85.271217    3.714522    -0.991768    1.642755    -37.046276    2.025515    8.121693    13.187929    -2.351381    0.159411    -6.969050    7.357596    -26.363184    -5.243012    -21.307308    -3.335075    18.373281    -18.344463    37.205482    -29.303770    24.152212    -24.102257    -89.632912    142.950943    22.695005    43.040771    14.836237    1.438669    10.740421    13.674061    25.940763    45.875103    -1.004732    -0.436402    89.243599    -50.601280    0.356680    -19.234053    9.421854    -19.944370    2.858963    1.486576    20.242159    14.135431    -7.379446    1.216452    3.686959    -2.600089    -4.111138    -14.455739    -5.110312    25.630779    -13.860739    2.164202    -17.169687    4.029485    
69.529114    85.352997    3.386075    -0.979573    1.849654    -38.744232    2.617415    8.030261    12.955139    -1.701013    0.059597    -6.160783    6.361644    -26.218773    -4.676960    -21.085270    -3.399052    18.757061    -17.794048    38.798042    -30.141859    24.090483    -23.277969    -88.009125    142.226135    23.390318    44.745808    14.627074    1.359705    10.244872    13.604765    26.358908    45.780205    -0.382735    0.233382    88.618790    -50.867016    0.841525    -19.084875    10.173850    -19.453545    3.855575    1.396740    19.739075    14.757914    -7.742844    1.210876    3.976911    -2.483436    -4.749217    -14.483463    -5.256673    25.561527    -12.696907    1.815262    -16.979761    4.469364    
69.508568    85.428001    3.076866    -0.925719    1.995574    -40.490395    3.103074    7.998023    12.812292    -1.058296    -0.101103    -5.369064    5.398466    -25.962774    -4.121984    -20.924023    -3.444284    18.994289    -17.135813    40.018730    -30.919029    23.785471    -22.242228    -86.612808    141.474838    24.026638    46.305984    14.434591    1.285618    9.744718    13.520203    26.806355    45.602070    0.303588    0.952696    87.802765    -51.611797    0.690860    -18.865856    10.845877    -18.837986    4.805906    1.287347    19.147106    15.504580    -8.004702    1.255328    4.191679    -2.404707    -5.357010    -14.422567    -5.427220    25.520086    -11.442883    1.546860    -16.821705    4.814106    
69.480858    85.493790    2.789040    -0.832783    2.066679    -42.271454    3.479366    8.024838    12.738569    -0.442292    -0.290253    -4.591309    4.494047    -25.639576    -3.567235    -20.835480    -3.472982    19.076185    -16.396172    40.877304    -31.596180    23.168665    -21.009003    -85.509346    140.840897    24.602678    47.663181    14.270027    1.208976    9.242035    13.401906    27.290686    45.372864    1.039573    1.682135    86.821167    -52.692600    0.017183    -18.585508    11.411556    -18.101599    5.660347    1.160161    18.476870    16.398905    -8.169755    1.351047    4.336161    -2.368402    -5.915884    -14.248848    -5.617169    25.490042    -10.105621    1.326412    -16.701693    5.039361    
